%TF.GenerationSoftware,KiCad,Pcbnew,5.99.0-unknown-7ef9082c86~117~ubuntu20.10.1*%
%TF.CreationDate,2021-03-10T10:58:43+01:00*%
%TF.ProjectId,abrd,61627264-2e6b-4696-9361-645f70636258,rev?*%
%TF.SameCoordinates,Original*%
%TF.FileFunction,Copper,L2,Bot*%
%TF.FilePolarity,Positive*%
%FSLAX46Y46*%
G04 Gerber Fmt 4.6, Leading zero omitted, Abs format (unit mm)*
G04 Created by KiCad (PCBNEW 5.99.0-unknown-7ef9082c86~117~ubuntu20.10.1) date 2021-03-10 10:58:43*
%MOMM*%
%LPD*%
G01*
G04 APERTURE LIST*
%TA.AperFunction,ComponentPad*%
%ADD10R,0.850000X0.850000*%
%TD*%
%TA.AperFunction,ComponentPad*%
%ADD11O,0.850000X0.850000*%
%TD*%
%TA.AperFunction,ComponentPad*%
%ADD12C,5.000000*%
%TD*%
%TA.AperFunction,ViaPad*%
%ADD13C,0.600000*%
%TD*%
G04 APERTURE END LIST*
D10*
%TO.P,J1,1,Pin_1*%
%TO.N,+5V*%
X123000000Y-71500000D03*
D11*
%TO.P,J1,2,Pin_2*%
%TO.N,GND*%
X123000000Y-72500000D03*
%TO.P,J1,3,Pin_3*%
%TO.N,+3V3*%
X123000000Y-73500000D03*
%TO.P,J1,4,Pin_4*%
%TO.N,/ledstrip*%
X123000000Y-74500000D03*
%TO.P,J1,5,Pin_5*%
%TO.N,/buzz*%
X123000000Y-75500000D03*
%TO.P,J1,6,Pin_6*%
%TO.N,/cap-switch*%
X123000000Y-76500000D03*
%TD*%
D12*
%TO.P,REF\u002A\u002A,1*%
%TO.N,N/C*%
X123000000Y-64000000D03*
%TD*%
D13*
%TO.N,GND*%
X131000000Y-75500000D03*
X120750000Y-86750000D03*
X121900000Y-75800000D03*
X139000000Y-84000000D03*
X133000000Y-84000000D03*
X127000000Y-84000000D03*
%TD*%
%TA.AperFunction,Conductor*%
%TO.N,GND*%
G36*
X163962212Y-60252608D02*
G01*
X163966577Y-60253518D01*
X163966581Y-60253518D01*
X163972544Y-60254761D01*
X164180624Y-60256654D01*
X164183916Y-60256728D01*
X164342372Y-60262387D01*
X164346749Y-60262622D01*
X164607144Y-60281246D01*
X164757884Y-60292027D01*
X164762292Y-60292421D01*
X164807118Y-60297240D01*
X164893520Y-60306529D01*
X164897863Y-60307075D01*
X165305860Y-60365736D01*
X165310202Y-60366440D01*
X165440076Y-60389872D01*
X165444407Y-60390734D01*
X165847188Y-60478354D01*
X165851402Y-60479349D01*
X165929230Y-60499214D01*
X165979258Y-60511983D01*
X165983526Y-60513154D01*
X166235375Y-60587103D01*
X166379083Y-60629299D01*
X166383259Y-60630607D01*
X166480562Y-60662993D01*
X166508378Y-60672251D01*
X166512553Y-60673723D01*
X166898828Y-60817797D01*
X166902945Y-60819417D01*
X166920141Y-60826540D01*
X167024837Y-60869906D01*
X167028767Y-60871617D01*
X167403836Y-61042905D01*
X167407751Y-61044778D01*
X167525773Y-61103856D01*
X167529637Y-61105878D01*
X167891404Y-61303417D01*
X167895218Y-61305589D01*
X168008764Y-61372959D01*
X168012501Y-61375267D01*
X168226806Y-61512993D01*
X168359238Y-61598102D01*
X168362919Y-61600561D01*
X168449502Y-61660677D01*
X168471267Y-61675789D01*
X168474851Y-61678374D01*
X168804849Y-61925407D01*
X168808258Y-61928054D01*
X168911032Y-62010874D01*
X168914427Y-62013712D01*
X169225954Y-62283650D01*
X169229230Y-62286592D01*
X169307080Y-62359073D01*
X169325780Y-62376483D01*
X169328965Y-62379557D01*
X169620443Y-62671035D01*
X169623516Y-62674219D01*
X169713408Y-62770770D01*
X169716334Y-62774027D01*
X169765431Y-62830688D01*
X169986285Y-63085568D01*
X169989112Y-63088951D01*
X170071933Y-63191726D01*
X170074574Y-63195127D01*
X170182390Y-63339151D01*
X170321627Y-63525151D01*
X170324216Y-63528741D01*
X170399422Y-63637058D01*
X170401881Y-63640738D01*
X170495468Y-63786362D01*
X170614222Y-63971145D01*
X170624740Y-63987512D01*
X170627067Y-63991279D01*
X170694395Y-64104756D01*
X170696585Y-64108602D01*
X170894126Y-64470372D01*
X170896177Y-64474293D01*
X170955228Y-64592261D01*
X170957080Y-64596131D01*
X171128368Y-64971201D01*
X171130123Y-64975233D01*
X171180586Y-65097062D01*
X171182207Y-65101181D01*
X171326271Y-65487432D01*
X171327744Y-65491607D01*
X171369389Y-65616732D01*
X171370711Y-65620956D01*
X171486848Y-66016478D01*
X171488018Y-66020743D01*
X171520643Y-66148567D01*
X171521646Y-66152814D01*
X171552602Y-66295114D01*
X171609266Y-66555594D01*
X171610130Y-66559935D01*
X171633556Y-66689775D01*
X171634264Y-66694145D01*
X171692932Y-67102191D01*
X171693471Y-67106481D01*
X171707577Y-67237685D01*
X171707971Y-67242093D01*
X171737377Y-67653234D01*
X171737614Y-67657654D01*
X171743272Y-67816081D01*
X171743346Y-67819374D01*
X171745239Y-68027456D01*
X171746482Y-68033419D01*
X171746482Y-68033423D01*
X171747392Y-68037788D01*
X171750000Y-68063084D01*
X171750000Y-80936916D01*
X171747392Y-80962212D01*
X171745239Y-80972544D01*
X171745184Y-80978636D01*
X171743346Y-81180621D01*
X171743272Y-81183919D01*
X171737614Y-81342346D01*
X171737377Y-81346766D01*
X171707971Y-81757907D01*
X171707578Y-81762302D01*
X171693471Y-81893519D01*
X171692932Y-81897809D01*
X171641858Y-82253039D01*
X171634264Y-82305855D01*
X171633556Y-82310225D01*
X171610130Y-82440065D01*
X171609266Y-82444406D01*
X171521646Y-82847186D01*
X171520643Y-82851433D01*
X171488019Y-82979253D01*
X171486848Y-82983522D01*
X171370711Y-83379044D01*
X171369389Y-83383268D01*
X171327744Y-83508393D01*
X171326271Y-83512568D01*
X171182207Y-83898819D01*
X171180586Y-83902938D01*
X171130123Y-84024767D01*
X171128368Y-84028799D01*
X170957080Y-84403869D01*
X170955228Y-84407739D01*
X170901432Y-84515208D01*
X170896177Y-84525707D01*
X170894126Y-84529628D01*
X170696585Y-84891398D01*
X170694395Y-84895244D01*
X170627067Y-85008721D01*
X170624740Y-85012488D01*
X170401881Y-85359262D01*
X170399422Y-85362942D01*
X170324216Y-85471259D01*
X170321627Y-85474849D01*
X170293767Y-85512066D01*
X170074574Y-85804873D01*
X170071933Y-85808274D01*
X169989123Y-85911036D01*
X169986285Y-85914432D01*
X169882187Y-86034568D01*
X169716334Y-86225973D01*
X169713408Y-86229230D01*
X169649974Y-86297363D01*
X169623517Y-86325780D01*
X169620443Y-86328965D01*
X169328965Y-86620443D01*
X169325781Y-86623516D01*
X169229230Y-86713408D01*
X169225954Y-86716350D01*
X168914427Y-86986288D01*
X168911037Y-86989122D01*
X168808258Y-87071946D01*
X168804849Y-87074593D01*
X168624213Y-87209816D01*
X168474857Y-87321622D01*
X168471273Y-87324207D01*
X168393772Y-87378017D01*
X168362918Y-87399439D01*
X168359238Y-87401898D01*
X168012501Y-87624733D01*
X168008764Y-87627041D01*
X167895218Y-87694411D01*
X167891404Y-87696583D01*
X167529637Y-87894122D01*
X167525773Y-87896144D01*
X167407751Y-87955222D01*
X167403836Y-87957095D01*
X167028767Y-88128383D01*
X167024837Y-88130094D01*
X166920141Y-88173460D01*
X166902945Y-88180583D01*
X166898828Y-88182203D01*
X166512553Y-88326277D01*
X166508378Y-88327749D01*
X166480562Y-88337007D01*
X166383259Y-88369393D01*
X166379083Y-88370701D01*
X166265727Y-88403985D01*
X165983526Y-88486846D01*
X165979258Y-88488017D01*
X165929230Y-88500786D01*
X165851402Y-88520651D01*
X165847188Y-88521646D01*
X165444412Y-88609265D01*
X165440076Y-88610128D01*
X165310202Y-88633560D01*
X165305860Y-88634264D01*
X164897863Y-88692925D01*
X164893520Y-88693471D01*
X164807118Y-88702760D01*
X164762292Y-88707579D01*
X164757884Y-88707973D01*
X164607144Y-88718754D01*
X164346749Y-88737378D01*
X164342372Y-88737613D01*
X164183917Y-88743272D01*
X164180624Y-88743346D01*
X163972544Y-88745239D01*
X163966581Y-88746482D01*
X163966577Y-88746482D01*
X163962212Y-88747392D01*
X163936916Y-88750000D01*
X163829563Y-88750000D01*
X158194949Y-88749999D01*
X152942805Y-88749999D01*
X131661644Y-88750000D01*
X123063282Y-88750000D01*
X123037657Y-88747323D01*
X123028149Y-88745315D01*
X122875886Y-88743515D01*
X122871304Y-88743377D01*
X122832225Y-88741457D01*
X122778397Y-88738812D01*
X122772328Y-88738364D01*
X122641286Y-88725458D01*
X122493974Y-88710949D01*
X122487981Y-88710210D01*
X122447065Y-88704141D01*
X122412958Y-88699081D01*
X122406964Y-88698040D01*
X122132713Y-88643488D01*
X122126775Y-88642155D01*
X122053241Y-88623736D01*
X122047375Y-88622113D01*
X121779722Y-88540921D01*
X121773943Y-88539012D01*
X121702633Y-88513497D01*
X121696954Y-88511306D01*
X121476277Y-88419899D01*
X121438526Y-88404262D01*
X121432965Y-88401797D01*
X121400370Y-88386381D01*
X121364462Y-88369398D01*
X121359069Y-88366683D01*
X121112361Y-88234814D01*
X121107101Y-88231835D01*
X121042092Y-88192870D01*
X121036962Y-88189622D01*
X120804400Y-88034228D01*
X120799440Y-88030735D01*
X120738563Y-87985586D01*
X120733775Y-87981849D01*
X120667988Y-87927859D01*
X120517554Y-87804401D01*
X120512996Y-87800471D01*
X120456781Y-87749520D01*
X120452396Y-87745344D01*
X120254648Y-87547595D01*
X120250468Y-87543206D01*
X120199532Y-87487007D01*
X120195585Y-87482430D01*
X120160974Y-87440256D01*
X120018144Y-87266217D01*
X120014414Y-87261437D01*
X119969268Y-87200564D01*
X119965764Y-87195589D01*
X119946536Y-87166811D01*
X119810388Y-86963053D01*
X119807134Y-86957915D01*
X119768169Y-86892905D01*
X119765170Y-86887610D01*
X119633316Y-86640927D01*
X119630593Y-86635518D01*
X119598178Y-86566982D01*
X119595759Y-86561525D01*
X119498111Y-86325780D01*
X119488692Y-86303040D01*
X119486502Y-86297363D01*
X119469864Y-86250863D01*
X119460988Y-86226057D01*
X119459090Y-86220315D01*
X119377883Y-85952614D01*
X119376265Y-85946764D01*
X119357844Y-85873222D01*
X119356511Y-85867284D01*
X119301957Y-85593020D01*
X119300916Y-85587024D01*
X119289797Y-85512066D01*
X119289052Y-85506026D01*
X119261635Y-85227668D01*
X119261187Y-85221597D01*
X119256623Y-85128695D01*
X119256484Y-85124097D01*
X119254757Y-84977946D01*
X119254685Y-84971851D01*
X119252677Y-84962343D01*
X119250000Y-84936718D01*
X119250000Y-72663646D01*
X122293616Y-72663646D01*
X122310271Y-72736659D01*
X122315046Y-72750144D01*
X122383212Y-72888983D01*
X122390961Y-72901006D01*
X122441175Y-72962029D01*
X122468572Y-73026303D01*
X122456871Y-73095186D01*
X122446880Y-73112115D01*
X122400273Y-73178429D01*
X122340879Y-73330767D01*
X122319537Y-73492874D01*
X122320357Y-73500301D01*
X122320357Y-73500304D01*
X122321897Y-73514251D01*
X122337480Y-73655393D01*
X122393670Y-73808941D01*
X122397839Y-73815145D01*
X122397840Y-73815147D01*
X122476293Y-73931897D01*
X122497345Y-73998519D01*
X122479037Y-74065948D01*
X122474832Y-74072343D01*
X122400273Y-74178429D01*
X122340879Y-74330767D01*
X122319537Y-74492874D01*
X122320357Y-74500301D01*
X122320357Y-74500304D01*
X122321897Y-74514251D01*
X122337480Y-74655393D01*
X122393670Y-74808941D01*
X122397839Y-74815145D01*
X122397840Y-74815147D01*
X122476293Y-74931897D01*
X122497345Y-74998519D01*
X122479037Y-75065948D01*
X122474832Y-75072343D01*
X122400273Y-75178429D01*
X122340879Y-75330767D01*
X122319537Y-75492874D01*
X122320357Y-75500301D01*
X122320357Y-75500304D01*
X122321897Y-75514251D01*
X122337480Y-75655393D01*
X122393670Y-75808941D01*
X122397839Y-75815145D01*
X122397840Y-75815147D01*
X122476293Y-75931897D01*
X122497345Y-75998519D01*
X122479037Y-76065948D01*
X122474832Y-76072343D01*
X122400273Y-76178429D01*
X122340879Y-76330767D01*
X122319537Y-76492874D01*
X122320357Y-76500301D01*
X122320357Y-76500304D01*
X122321897Y-76514251D01*
X122337480Y-76655393D01*
X122393670Y-76808941D01*
X122397839Y-76815145D01*
X122397841Y-76815149D01*
X122410444Y-76833904D01*
X122484865Y-76944653D01*
X122541618Y-76996294D01*
X122600267Y-77049661D01*
X122600271Y-77049664D01*
X122605799Y-77054694D01*
X122612369Y-77058261D01*
X122612370Y-77058262D01*
X122634287Y-77070162D01*
X122749491Y-77132713D01*
X122855275Y-77160465D01*
X122900418Y-77172308D01*
X122900420Y-77172308D01*
X122907646Y-77174204D01*
X122987616Y-77175460D01*
X123063662Y-77176655D01*
X123063665Y-77176655D01*
X123071132Y-77176772D01*
X123078413Y-77175104D01*
X123078417Y-77175104D01*
X123223224Y-77141938D01*
X123230511Y-77140269D01*
X123376583Y-77066803D01*
X123382264Y-77061951D01*
X123382267Y-77061949D01*
X123495232Y-76965467D01*
X123500914Y-76960614D01*
X123516844Y-76938446D01*
X123533193Y-76915693D01*
X123596327Y-76827833D01*
X123657313Y-76676126D01*
X123661322Y-76647962D01*
X123679779Y-76518270D01*
X123680351Y-76514251D01*
X123680500Y-76500000D01*
X123660857Y-76337678D01*
X123603062Y-76184727D01*
X123523756Y-76069336D01*
X123502008Y-76002940D01*
X123519609Y-75935324D01*
X123525251Y-75926745D01*
X123596327Y-75827833D01*
X123657313Y-75676126D01*
X123661322Y-75647962D01*
X123679779Y-75518270D01*
X123680351Y-75514251D01*
X123680500Y-75500000D01*
X123660857Y-75337678D01*
X123603062Y-75184727D01*
X123523756Y-75069336D01*
X123502008Y-75002940D01*
X123519609Y-74935324D01*
X123525251Y-74926745D01*
X123596327Y-74827833D01*
X123657313Y-74676126D01*
X123661322Y-74647962D01*
X123679779Y-74518270D01*
X123680351Y-74514251D01*
X123680500Y-74500000D01*
X123660857Y-74337678D01*
X123603062Y-74184727D01*
X123523756Y-74069336D01*
X123502008Y-74002940D01*
X123519609Y-73935324D01*
X123525251Y-73926745D01*
X123596327Y-73827833D01*
X123657313Y-73676126D01*
X123661322Y-73647962D01*
X123679779Y-73518270D01*
X123680351Y-73514251D01*
X123680500Y-73500000D01*
X123660857Y-73337678D01*
X123603062Y-73184727D01*
X123598829Y-73178568D01*
X123598827Y-73178564D01*
X123554708Y-73114371D01*
X123532959Y-73047973D01*
X123554281Y-72974528D01*
X123643476Y-72843035D01*
X123650081Y-72830346D01*
X123705130Y-72685809D01*
X123708642Y-72671931D01*
X123709206Y-72667674D01*
X123707045Y-72653733D01*
X123694067Y-72650000D01*
X122308333Y-72650000D01*
X122295016Y-72653910D01*
X122293616Y-72663646D01*
X119250000Y-72663646D01*
X119250000Y-72332683D01*
X122294461Y-72332683D01*
X122295094Y-72346546D01*
X122303672Y-72350000D01*
X123694682Y-72350000D01*
X123708529Y-72345934D01*
X123710254Y-72334981D01*
X123707964Y-72325295D01*
X123655190Y-72179905D01*
X123645558Y-72160671D01*
X123648209Y-72159343D01*
X123631800Y-72105342D01*
X123649981Y-72044376D01*
X123649592Y-72044215D01*
X123651154Y-72040443D01*
X123652692Y-72035287D01*
X123654265Y-72032932D01*
X123661051Y-72022776D01*
X123680500Y-71925000D01*
X123680500Y-71075000D01*
X123661051Y-70977224D01*
X123605666Y-70894334D01*
X123522776Y-70838949D01*
X123425000Y-70819500D01*
X122575000Y-70819500D01*
X122477224Y-70838949D01*
X122394334Y-70894334D01*
X122338949Y-70977224D01*
X122319500Y-71075000D01*
X122319500Y-71925000D01*
X122338949Y-72022776D01*
X122345734Y-72032930D01*
X122345735Y-72032933D01*
X122349877Y-72039132D01*
X122370755Y-72105809D01*
X122357210Y-72164414D01*
X122319061Y-72239124D01*
X122314072Y-72252538D01*
X122294461Y-72332683D01*
X119250000Y-72332683D01*
X119250000Y-64063282D01*
X119252677Y-64037654D01*
X119253426Y-64034109D01*
X119254685Y-64028149D01*
X119255359Y-63971145D01*
X120244651Y-63971145D01*
X120244836Y-63974862D01*
X120244836Y-63974869D01*
X120260955Y-64298644D01*
X120261141Y-64302373D01*
X120317303Y-64629221D01*
X120412326Y-64946954D01*
X120544832Y-65250971D01*
X120712901Y-65536867D01*
X120914100Y-65800500D01*
X121145514Y-66038053D01*
X121403791Y-66246085D01*
X121406965Y-66248065D01*
X121406970Y-66248068D01*
X121671134Y-66412815D01*
X121685189Y-66421581D01*
X121766983Y-66459809D01*
X121982247Y-66560417D01*
X121982254Y-66560420D01*
X121985633Y-66561999D01*
X122300770Y-66665306D01*
X122304437Y-66666035D01*
X122304443Y-66666037D01*
X122522209Y-66709353D01*
X122626036Y-66730006D01*
X122660930Y-66732660D01*
X122952992Y-66754877D01*
X122952999Y-66754877D01*
X122956718Y-66755160D01*
X122960448Y-66754994D01*
X122960454Y-66754994D01*
X123284288Y-66740572D01*
X123284295Y-66740571D01*
X123288028Y-66740405D01*
X123615166Y-66685954D01*
X123933392Y-66592597D01*
X124001902Y-66563163D01*
X124234669Y-66463159D01*
X124234674Y-66463157D01*
X124238099Y-66461685D01*
X124524870Y-66295114D01*
X124527852Y-66292863D01*
X124786573Y-66097550D01*
X124786579Y-66097545D01*
X124789554Y-66095299D01*
X125028316Y-65865132D01*
X125078755Y-65803178D01*
X125235340Y-65610842D01*
X125235341Y-65610841D01*
X125237696Y-65607948D01*
X125414663Y-65327472D01*
X125416258Y-65324105D01*
X125416262Y-65324098D01*
X125555054Y-65031143D01*
X125556653Y-65027768D01*
X125661609Y-64713176D01*
X125728010Y-64388253D01*
X125754896Y-64057707D01*
X125754973Y-64050329D01*
X125755477Y-64002208D01*
X125755477Y-64002205D01*
X125755500Y-64000000D01*
X125735543Y-63668963D01*
X125675961Y-63342721D01*
X125603791Y-63110296D01*
X125578725Y-63029571D01*
X125578724Y-63029568D01*
X125577616Y-63026000D01*
X125441934Y-62723388D01*
X125270880Y-62439268D01*
X125238595Y-62397871D01*
X125069222Y-62180692D01*
X125069218Y-62180687D01*
X125066931Y-62177755D01*
X124931970Y-62042085D01*
X124835670Y-61945279D01*
X124835663Y-61945273D01*
X124833042Y-61942638D01*
X124814543Y-61928054D01*
X124713186Y-61848151D01*
X124572601Y-61737323D01*
X124549521Y-61723262D01*
X124325316Y-61586676D01*
X124289381Y-61564784D01*
X124268313Y-61555205D01*
X123990882Y-61429064D01*
X123990876Y-61429062D01*
X123987483Y-61427519D01*
X123983928Y-61426395D01*
X123983921Y-61426392D01*
X123674846Y-61328645D01*
X123674839Y-61328643D01*
X123671281Y-61327518D01*
X123667613Y-61326828D01*
X123667608Y-61326827D01*
X123349031Y-61266919D01*
X123349030Y-61266919D01*
X123345356Y-61266228D01*
X123213820Y-61257607D01*
X123018142Y-61244781D01*
X123018135Y-61244781D01*
X123014428Y-61244538D01*
X122683291Y-61262761D01*
X122679611Y-61263413D01*
X122679604Y-61263414D01*
X122528635Y-61290170D01*
X122356741Y-61320635D01*
X122353167Y-61321724D01*
X122353168Y-61321724D01*
X122043088Y-61416228D01*
X122043080Y-61416231D01*
X122039510Y-61417319D01*
X122036093Y-61418830D01*
X122036092Y-61418830D01*
X121934775Y-61463622D01*
X121736191Y-61551415D01*
X121657717Y-61598102D01*
X121454397Y-61719064D01*
X121454391Y-61719068D01*
X121451179Y-61720979D01*
X121448226Y-61723257D01*
X121448219Y-61723262D01*
X121343036Y-61804411D01*
X121188603Y-61923556D01*
X121185943Y-61926174D01*
X121185939Y-61926178D01*
X121137359Y-61974001D01*
X120952264Y-62156211D01*
X120745588Y-62415573D01*
X120571568Y-62697886D01*
X120432725Y-62999061D01*
X120331069Y-63314735D01*
X120330361Y-63318394D01*
X120330359Y-63318402D01*
X120296391Y-63493974D01*
X120268074Y-63640335D01*
X120244651Y-63971145D01*
X119255359Y-63971145D01*
X119256485Y-63875883D01*
X119256624Y-63871284D01*
X119258121Y-63840829D01*
X119261188Y-63778394D01*
X119261635Y-63772332D01*
X119289052Y-63493974D01*
X119289797Y-63487934D01*
X119300916Y-63412976D01*
X119301957Y-63406980D01*
X119356511Y-63132716D01*
X119357844Y-63126778D01*
X119376265Y-63053236D01*
X119377888Y-63047369D01*
X119383287Y-63029571D01*
X119459090Y-62779685D01*
X119460992Y-62773931D01*
X119462130Y-62770752D01*
X119477855Y-62726803D01*
X119486502Y-62702637D01*
X119488692Y-62696960D01*
X119538282Y-62577237D01*
X119595759Y-62438475D01*
X119598178Y-62433018D01*
X119630593Y-62364482D01*
X119633316Y-62359073D01*
X119765170Y-62112390D01*
X119768169Y-62107095D01*
X119807134Y-62042085D01*
X119810391Y-62036942D01*
X119871874Y-61944927D01*
X119965773Y-61804398D01*
X119969268Y-61799436D01*
X120014414Y-61738563D01*
X120018144Y-61733783D01*
X120195595Y-61517558D01*
X120199532Y-61512993D01*
X120250468Y-61456794D01*
X120254648Y-61452405D01*
X120452396Y-61254656D01*
X120456781Y-61250480D01*
X120512996Y-61199529D01*
X120517554Y-61195599D01*
X120733775Y-61018151D01*
X120738572Y-61014407D01*
X120799440Y-60969265D01*
X120804400Y-60965772D01*
X120845274Y-60938461D01*
X121036962Y-60810378D01*
X121042092Y-60807130D01*
X121044174Y-60805882D01*
X121107101Y-60768165D01*
X121112361Y-60765186D01*
X121359069Y-60633317D01*
X121364462Y-60630602D01*
X121400370Y-60613619D01*
X121432965Y-60598203D01*
X121438528Y-60595737D01*
X121459373Y-60587103D01*
X121671556Y-60499214D01*
X121696954Y-60488694D01*
X121702633Y-60486503D01*
X121773943Y-60460988D01*
X121779722Y-60459079D01*
X122047375Y-60377887D01*
X122053241Y-60376264D01*
X122126775Y-60357845D01*
X122132713Y-60356512D01*
X122406964Y-60301960D01*
X122412958Y-60300919D01*
X122447065Y-60295859D01*
X122487981Y-60289790D01*
X122493974Y-60289051D01*
X122641286Y-60274542D01*
X122772328Y-60261636D01*
X122778397Y-60261188D01*
X122832225Y-60258543D01*
X122871304Y-60256623D01*
X122875886Y-60256485D01*
X123028149Y-60254685D01*
X123037657Y-60252677D01*
X123063282Y-60250000D01*
X163936916Y-60250000D01*
X163962212Y-60252608D01*
G37*
%TD.AperFunction*%
%TD*%
M02*
