%TF.GenerationSoftware,KiCad,Pcbnew,5.99.0-unknown-b691c18bfc~117~ubuntu20.10.1*%
%TF.CreationDate,2021-03-09T07:05:17+01:00*%
%TF.ProjectId,abrd,61627264-2e6b-4696-9361-645f70636258,rev?*%
%TF.SameCoordinates,Original*%
%TF.FileFunction,Copper,L2,Bot*%
%TF.FilePolarity,Positive*%
%FSLAX46Y46*%
G04 Gerber Fmt 4.6, Leading zero omitted, Abs format (unit mm)*
G04 Created by KiCad (PCBNEW 5.99.0-unknown-b691c18bfc~117~ubuntu20.10.1) date 2021-03-09 07:05:17*
%MOMM*%
%LPD*%
G01*
G04 APERTURE LIST*
%TA.AperFunction,ComponentPad*%
%ADD10R,0.850000X0.850000*%
%TD*%
%TA.AperFunction,ComponentPad*%
%ADD11O,0.850000X0.850000*%
%TD*%
%TA.AperFunction,ComponentPad*%
%ADD12C,5.000000*%
%TD*%
%TA.AperFunction,ViaPad*%
%ADD13C,0.600000*%
%TD*%
G04 APERTURE END LIST*
D10*
%TO.P,J1,1,Pin_1*%
%TO.N,+5V*%
X123000000Y-71500000D03*
D11*
%TO.P,J1,2,Pin_2*%
%TO.N,GND*%
X123000000Y-72500000D03*
%TO.P,J1,3,Pin_3*%
%TO.N,+3V3*%
X123000000Y-73500000D03*
%TO.P,J1,4,Pin_4*%
%TO.N,/ledstrip*%
X123000000Y-74500000D03*
%TO.P,J1,5,Pin_5*%
%TO.N,/buzz*%
X123000000Y-75500000D03*
%TO.P,J1,6,Pin_6*%
%TO.N,/cap-switch*%
X123000000Y-76500000D03*
%TD*%
D12*
%TO.P,REF\u002A\u002A,1*%
%TO.N,N/C*%
X123000000Y-64000000D03*
%TD*%
D13*
%TO.N,GND*%
X128500000Y-83750000D03*
X130000000Y-87000000D03*
X144000000Y-87000000D03*
X136000000Y-87000000D03*
X122000000Y-86000000D03*
X147500000Y-63000000D03*
%TD*%
%TA.AperFunction,Conductor*%
%TO.N,GND*%
G36*
X163939274Y-60509682D02*
G01*
X163952343Y-60511839D01*
X163952345Y-60511839D01*
X163957143Y-60512631D01*
X164030324Y-60513297D01*
X164174802Y-60514612D01*
X164178151Y-60514687D01*
X164281918Y-60518392D01*
X164328518Y-60520057D01*
X164332982Y-60520296D01*
X164732628Y-60548880D01*
X164734907Y-60549043D01*
X164739387Y-60549444D01*
X164861243Y-60562545D01*
X164865708Y-60563105D01*
X165264567Y-60620452D01*
X165268991Y-60621170D01*
X165299228Y-60626625D01*
X165389654Y-60642940D01*
X165394065Y-60643817D01*
X165543223Y-60676264D01*
X165787788Y-60729466D01*
X165792116Y-60730489D01*
X165911004Y-60760834D01*
X165915324Y-60762019D01*
X166024686Y-60794130D01*
X166301913Y-60875533D01*
X166306205Y-60876877D01*
X166422513Y-60915588D01*
X166426754Y-60917084D01*
X166804280Y-61057893D01*
X166808466Y-61059540D01*
X166921755Y-61106466D01*
X166925879Y-61108261D01*
X167292415Y-61275653D01*
X167296469Y-61277593D01*
X167406081Y-61332460D01*
X167410047Y-61334535D01*
X167598320Y-61437339D01*
X167763709Y-61527648D01*
X167767587Y-61529856D01*
X167873097Y-61592458D01*
X167876861Y-61594783D01*
X168215889Y-61812664D01*
X168219598Y-61815143D01*
X168320306Y-61885067D01*
X168323954Y-61887697D01*
X168646513Y-62129161D01*
X168650064Y-62131920D01*
X168745541Y-62208859D01*
X168748968Y-62211723D01*
X168915260Y-62355815D01*
X169053478Y-62475582D01*
X169056824Y-62478587D01*
X169146608Y-62562179D01*
X169149844Y-62565303D01*
X169434697Y-62850156D01*
X169437821Y-62853392D01*
X169521409Y-62943172D01*
X169524414Y-62946519D01*
X169788268Y-63251023D01*
X169791153Y-63254474D01*
X169868081Y-63349937D01*
X169870840Y-63353489D01*
X170112297Y-63676038D01*
X170114928Y-63679686D01*
X170184867Y-63780416D01*
X170187366Y-63784156D01*
X170405189Y-64123095D01*
X170407553Y-64126922D01*
X170470137Y-64232401D01*
X170472350Y-64236288D01*
X170665466Y-64589955D01*
X170667550Y-64593940D01*
X170722425Y-64703566D01*
X170724342Y-64707573D01*
X170891747Y-65074137D01*
X170893507Y-65078178D01*
X170940472Y-65191561D01*
X170942094Y-65195684D01*
X170979057Y-65294786D01*
X171082913Y-65573236D01*
X171084409Y-65577478D01*
X171123130Y-65693817D01*
X171124474Y-65698109D01*
X171237982Y-66084684D01*
X171239172Y-66089021D01*
X171269505Y-66207861D01*
X171270540Y-66212239D01*
X171356184Y-66605939D01*
X171357061Y-66610351D01*
X171378831Y-66731016D01*
X171379550Y-66735455D01*
X171395227Y-66844488D01*
X171430482Y-67089690D01*
X171436893Y-67134282D01*
X171437454Y-67138745D01*
X171450558Y-67260631D01*
X171450959Y-67265106D01*
X171479217Y-67660200D01*
X171479703Y-67666998D01*
X171479944Y-67671491D01*
X171485313Y-67821847D01*
X171485388Y-67825196D01*
X171487339Y-68039579D01*
X171488015Y-68044011D01*
X171490560Y-68060700D01*
X171492000Y-68079696D01*
X171492000Y-80918757D01*
X171490318Y-80939274D01*
X171487369Y-80957143D01*
X171487325Y-80962004D01*
X171485388Y-81174802D01*
X171485313Y-81178152D01*
X171479944Y-81328505D01*
X171479703Y-81332997D01*
X171450957Y-81734908D01*
X171450556Y-81739388D01*
X171437455Y-81861239D01*
X171436895Y-81865702D01*
X171379548Y-82264561D01*
X171378828Y-82269001D01*
X171357055Y-82389681D01*
X171356182Y-82394073D01*
X171270534Y-82787788D01*
X171269510Y-82792119D01*
X171239171Y-82910988D01*
X171237981Y-82915327D01*
X171124464Y-83301922D01*
X171123120Y-83306213D01*
X171084415Y-83422505D01*
X171082919Y-83426747D01*
X170942115Y-83804261D01*
X170940467Y-83808448D01*
X170893523Y-83921778D01*
X170891729Y-83925901D01*
X170724358Y-84292394D01*
X170722416Y-84296452D01*
X170667549Y-84406061D01*
X170665465Y-84410046D01*
X170472349Y-84763713D01*
X170470123Y-84767621D01*
X170407555Y-84873075D01*
X170405194Y-84876897D01*
X170191937Y-85208731D01*
X170187359Y-85215854D01*
X170184860Y-85219594D01*
X170114932Y-85320308D01*
X170112302Y-85323956D01*
X169870832Y-85646525D01*
X169868093Y-85650049D01*
X169791128Y-85745557D01*
X169788243Y-85749008D01*
X169524431Y-86053463D01*
X169521426Y-86056810D01*
X169437821Y-86146608D01*
X169434697Y-86149844D01*
X169149844Y-86434697D01*
X169146608Y-86437821D01*
X169056810Y-86521426D01*
X169053463Y-86524431D01*
X168748997Y-86788252D01*
X168745546Y-86791137D01*
X168650060Y-86868084D01*
X168646508Y-86870843D01*
X168336884Y-87102625D01*
X168323950Y-87112307D01*
X168320344Y-87114908D01*
X168237501Y-87172427D01*
X168219595Y-87184859D01*
X168215856Y-87187357D01*
X167876909Y-87405187D01*
X167873118Y-87407529D01*
X167767532Y-87470176D01*
X167763736Y-87472337D01*
X167410040Y-87665469D01*
X167406095Y-87667533D01*
X167376434Y-87682380D01*
X167296443Y-87722420D01*
X167292386Y-87724361D01*
X166925880Y-87891739D01*
X166921756Y-87893534D01*
X166808474Y-87940457D01*
X166804288Y-87942104D01*
X166426732Y-88082924D01*
X166422490Y-88084420D01*
X166306196Y-88123126D01*
X166301905Y-88124470D01*
X165915266Y-88237997D01*
X165911002Y-88239167D01*
X165792093Y-88269517D01*
X165787821Y-88270527D01*
X165493861Y-88334474D01*
X165394061Y-88356184D01*
X165389649Y-88357061D01*
X165268984Y-88378831D01*
X165264545Y-88379550D01*
X164989257Y-88419131D01*
X164865705Y-88436895D01*
X164861269Y-88437452D01*
X164739364Y-88450558D01*
X164734894Y-88450959D01*
X164683526Y-88454633D01*
X164333003Y-88479702D01*
X164328511Y-88479943D01*
X164178152Y-88485313D01*
X164174802Y-88485388D01*
X163964904Y-88487298D01*
X163964901Y-88487298D01*
X163960421Y-88487339D01*
X163954159Y-88488294D01*
X163939300Y-88490560D01*
X163920304Y-88492000D01*
X163716226Y-88492000D01*
X157638326Y-88491999D01*
X140129657Y-88491999D01*
X123269031Y-88492000D01*
X123081640Y-88492000D01*
X123060786Y-88490262D01*
X123044251Y-88487487D01*
X123039383Y-88487429D01*
X123039378Y-88487429D01*
X122883769Y-88485590D01*
X122879075Y-88485447D01*
X122876348Y-88485313D01*
X122866085Y-88484809D01*
X122797432Y-88481436D01*
X122791265Y-88480981D01*
X122525618Y-88454817D01*
X122519481Y-88454060D01*
X122508460Y-88452425D01*
X122457143Y-88444813D01*
X122451107Y-88443766D01*
X122189272Y-88391684D01*
X122183242Y-88390330D01*
X122168559Y-88386652D01*
X122122101Y-88375015D01*
X122116168Y-88373373D01*
X121860738Y-88295889D01*
X121854876Y-88293953D01*
X121795542Y-88272722D01*
X121789774Y-88270497D01*
X121543163Y-88168347D01*
X121537508Y-88165840D01*
X121480566Y-88138908D01*
X121475043Y-88136128D01*
X121239616Y-88010289D01*
X121234236Y-88007241D01*
X121180222Y-87974867D01*
X121174996Y-87971558D01*
X121096478Y-87919094D01*
X120953027Y-87823243D01*
X120947979Y-87819688D01*
X120897384Y-87782164D01*
X120892544Y-87778387D01*
X120686165Y-87609017D01*
X120681508Y-87605000D01*
X120634806Y-87562672D01*
X120630326Y-87558407D01*
X120441586Y-87369666D01*
X120437322Y-87365187D01*
X120395013Y-87318506D01*
X120390974Y-87313824D01*
X120221648Y-87107500D01*
X120217843Y-87102625D01*
X120180304Y-87052010D01*
X120176743Y-87046953D01*
X120028455Y-86825025D01*
X120025146Y-86819800D01*
X119992740Y-86765734D01*
X119989692Y-86760353D01*
X119863875Y-86524965D01*
X119861099Y-86519450D01*
X119834151Y-86462472D01*
X119831645Y-86456819D01*
X119729496Y-86210211D01*
X119727287Y-86204485D01*
X119706052Y-86145137D01*
X119704122Y-86139293D01*
X119678086Y-86053463D01*
X119626616Y-85883790D01*
X119624973Y-85877853D01*
X119609674Y-85816772D01*
X119608319Y-85810740D01*
X119556239Y-85548918D01*
X119555182Y-85542824D01*
X119545940Y-85480518D01*
X119545183Y-85474381D01*
X119530008Y-85320308D01*
X119519013Y-85208669D01*
X119518565Y-85202588D01*
X119514552Y-85120895D01*
X119514409Y-85116216D01*
X119512605Y-84963506D01*
X119512605Y-84963505D01*
X119512552Y-84959027D01*
X119509492Y-84939323D01*
X119508000Y-84919987D01*
X119508000Y-71075000D01*
X122061500Y-71075000D01*
X122061500Y-71925000D01*
X122066727Y-71998079D01*
X122068631Y-72004562D01*
X122107904Y-72138316D01*
X122106360Y-72138769D01*
X122115012Y-72198938D01*
X122110127Y-72219946D01*
X122107260Y-72228771D01*
X122106857Y-72242867D01*
X122113229Y-72246000D01*
X122122304Y-72246000D01*
X122190425Y-72266002D01*
X122204814Y-72276774D01*
X122297381Y-72356984D01*
X122430330Y-72417700D01*
X122439245Y-72418982D01*
X122439246Y-72418982D01*
X122531494Y-72432245D01*
X122596074Y-72461739D01*
X122634458Y-72521465D01*
X122634458Y-72592461D01*
X122596074Y-72652187D01*
X122564811Y-72672070D01*
X122536780Y-72684550D01*
X122536778Y-72684551D01*
X122530750Y-72687235D01*
X122525409Y-72691115D01*
X122525408Y-72691116D01*
X122471977Y-72729936D01*
X122397916Y-72754000D01*
X122119776Y-72754000D01*
X122106245Y-72757973D01*
X122105235Y-72765000D01*
X122141052Y-72875234D01*
X122146397Y-72887239D01*
X122174840Y-72936505D01*
X122191577Y-73005500D01*
X122174839Y-73062504D01*
X122142638Y-73118278D01*
X122082008Y-73304875D01*
X122061500Y-73500000D01*
X122082008Y-73695125D01*
X122142638Y-73881722D01*
X122145941Y-73887443D01*
X122174553Y-73937000D01*
X122191291Y-74005995D01*
X122174553Y-74062999D01*
X122142638Y-74118278D01*
X122082008Y-74304875D01*
X122061500Y-74500000D01*
X122082008Y-74695125D01*
X122142638Y-74881722D01*
X122145941Y-74887443D01*
X122174553Y-74937000D01*
X122191291Y-75005995D01*
X122174553Y-75062999D01*
X122142638Y-75118278D01*
X122082008Y-75304875D01*
X122061500Y-75500000D01*
X122082008Y-75695125D01*
X122142638Y-75881722D01*
X122145941Y-75887443D01*
X122174553Y-75937000D01*
X122191291Y-76005995D01*
X122174553Y-76062999D01*
X122142638Y-76118278D01*
X122082008Y-76304875D01*
X122061500Y-76500000D01*
X122082008Y-76695125D01*
X122142638Y-76881722D01*
X122240738Y-77051636D01*
X122372021Y-77197441D01*
X122530750Y-77312765D01*
X122536778Y-77315449D01*
X122536780Y-77315450D01*
X122703957Y-77389882D01*
X122709988Y-77392567D01*
X122805944Y-77412963D01*
X122895443Y-77431987D01*
X122895447Y-77431987D01*
X122901900Y-77433359D01*
X123098100Y-77433359D01*
X123104553Y-77431987D01*
X123104557Y-77431987D01*
X123194056Y-77412963D01*
X123290012Y-77392567D01*
X123296043Y-77389882D01*
X123463220Y-77315450D01*
X123463222Y-77315449D01*
X123469250Y-77312765D01*
X123627979Y-77197441D01*
X123759262Y-77051636D01*
X123857362Y-76881722D01*
X123917992Y-76695125D01*
X123938500Y-76500000D01*
X123917992Y-76304875D01*
X123857362Y-76118278D01*
X123825447Y-76063000D01*
X123808709Y-75994005D01*
X123825447Y-75937000D01*
X123854059Y-75887443D01*
X123857362Y-75881722D01*
X123917992Y-75695125D01*
X123938500Y-75500000D01*
X123917992Y-75304875D01*
X123857362Y-75118278D01*
X123825447Y-75063000D01*
X123808709Y-74994005D01*
X123825447Y-74937000D01*
X123854059Y-74887443D01*
X123857362Y-74881722D01*
X123917992Y-74695125D01*
X123938500Y-74500000D01*
X123917992Y-74304875D01*
X123857362Y-74118278D01*
X123825447Y-74063000D01*
X123808709Y-73994005D01*
X123825447Y-73937000D01*
X123854059Y-73887443D01*
X123857362Y-73881722D01*
X123917992Y-73695125D01*
X123938500Y-73500000D01*
X123917992Y-73304875D01*
X123857362Y-73118278D01*
X123825161Y-73062504D01*
X123808423Y-72993508D01*
X123825160Y-72936505D01*
X123853603Y-72887239D01*
X123858948Y-72875234D01*
X123892740Y-72771232D01*
X123893143Y-72757133D01*
X123886771Y-72754000D01*
X123602084Y-72754000D01*
X123528023Y-72729936D01*
X123474592Y-72691116D01*
X123474591Y-72691115D01*
X123469250Y-72687235D01*
X123463224Y-72684552D01*
X123463217Y-72684548D01*
X123441894Y-72675055D01*
X123387798Y-72629075D01*
X123367148Y-72561148D01*
X123386500Y-72492840D01*
X123439711Y-72445838D01*
X123484153Y-72434269D01*
X123487734Y-72434013D01*
X123491341Y-72433755D01*
X123491342Y-72433755D01*
X123498079Y-72433273D01*
X123576165Y-72410345D01*
X123629670Y-72394635D01*
X123629672Y-72394634D01*
X123638316Y-72392096D01*
X123702135Y-72351082D01*
X123753691Y-72317949D01*
X123753694Y-72317947D01*
X123761271Y-72313077D01*
X123781712Y-72289487D01*
X123841438Y-72251104D01*
X123876936Y-72246000D01*
X123880224Y-72246000D01*
X123893755Y-72242027D01*
X123894765Y-72235001D01*
X123888071Y-72214399D01*
X123886044Y-72143431D01*
X123893290Y-72123121D01*
X123913958Y-72077865D01*
X123913959Y-72077862D01*
X123917700Y-72069670D01*
X123928962Y-71991340D01*
X123937861Y-71929448D01*
X123937862Y-71929441D01*
X123938500Y-71925000D01*
X123938500Y-71075000D01*
X123933273Y-71001921D01*
X123892096Y-70861684D01*
X123846393Y-70790569D01*
X123817949Y-70746309D01*
X123817947Y-70746306D01*
X123813077Y-70738729D01*
X123806267Y-70732828D01*
X123709431Y-70648918D01*
X123709428Y-70648916D01*
X123702619Y-70643016D01*
X123569670Y-70582300D01*
X123560755Y-70581018D01*
X123560754Y-70581018D01*
X123429448Y-70562139D01*
X123429441Y-70562138D01*
X123425000Y-70561500D01*
X122575000Y-70561500D01*
X122501921Y-70566727D01*
X122448884Y-70582300D01*
X122370330Y-70605365D01*
X122370328Y-70605366D01*
X122361684Y-70607904D01*
X122354105Y-70612775D01*
X122246309Y-70682051D01*
X122246306Y-70682053D01*
X122238729Y-70686923D01*
X122232828Y-70693733D01*
X122148918Y-70790569D01*
X122148916Y-70790572D01*
X122143016Y-70797381D01*
X122082300Y-70930330D01*
X122081018Y-70939245D01*
X122081018Y-70939246D01*
X122062139Y-71070552D01*
X122062138Y-71070559D01*
X122061500Y-71075000D01*
X119508000Y-71075000D01*
X119508000Y-64081640D01*
X119509738Y-64060786D01*
X119511706Y-64049057D01*
X119512513Y-64044251D01*
X119514155Y-63905344D01*
X119987987Y-63905344D01*
X119988082Y-63908974D01*
X119988082Y-63908975D01*
X119996653Y-64236288D01*
X119997069Y-64252163D01*
X120045953Y-64595640D01*
X120133991Y-64931223D01*
X120260017Y-65254462D01*
X120289798Y-65310709D01*
X120395199Y-65509775D01*
X120422360Y-65561074D01*
X120424412Y-65564059D01*
X120424417Y-65564068D01*
X120616811Y-65844003D01*
X120616817Y-65844010D01*
X120618868Y-65846995D01*
X120621256Y-65849732D01*
X120826218Y-66084684D01*
X120846937Y-66108435D01*
X121103543Y-66341929D01*
X121385286Y-66544382D01*
X121688431Y-66713111D01*
X122008960Y-66845878D01*
X122012454Y-66846873D01*
X122012456Y-66846874D01*
X122339124Y-66939928D01*
X122339129Y-66939929D01*
X122342625Y-66940925D01*
X122346206Y-66941511D01*
X122346213Y-66941513D01*
X122681423Y-66996406D01*
X122681427Y-66996406D01*
X122685003Y-66996992D01*
X122688629Y-66997163D01*
X123027930Y-67013164D01*
X123027931Y-67013164D01*
X123031557Y-67013335D01*
X123042226Y-67012608D01*
X123374061Y-66989986D01*
X123374069Y-66989985D01*
X123377692Y-66989738D01*
X123381267Y-66989075D01*
X123381270Y-66989075D01*
X123715256Y-66927174D01*
X123715260Y-66927173D01*
X123718821Y-66926513D01*
X124050422Y-66824499D01*
X124368100Y-66685048D01*
X124667645Y-66510008D01*
X124945087Y-66301699D01*
X125196747Y-66062883D01*
X125419290Y-65796724D01*
X125525573Y-65634925D01*
X125607781Y-65509775D01*
X125607781Y-65509774D01*
X125609768Y-65506750D01*
X125690589Y-65346056D01*
X125764027Y-65200041D01*
X125764030Y-65200033D01*
X125765654Y-65196805D01*
X125864128Y-64927711D01*
X125883634Y-64874409D01*
X125883637Y-64874400D01*
X125884882Y-64870997D01*
X125885727Y-64867475D01*
X125885730Y-64867467D01*
X125937203Y-64653064D01*
X125965873Y-64533645D01*
X125966310Y-64530034D01*
X126007216Y-64192016D01*
X126007217Y-64192005D01*
X126007554Y-64189219D01*
X126013500Y-64000000D01*
X126008042Y-63905344D01*
X125993738Y-63657257D01*
X125993737Y-63657252D01*
X125993529Y-63653637D01*
X125938327Y-63337345D01*
X125934504Y-63315438D01*
X125934502Y-63315431D01*
X125933880Y-63311865D01*
X125931110Y-63302511D01*
X125836376Y-62982698D01*
X125835344Y-62979213D01*
X125788199Y-62868682D01*
X125754543Y-62789779D01*
X125699227Y-62660092D01*
X125649482Y-62572878D01*
X125529125Y-62361870D01*
X125527334Y-62358730D01*
X125321942Y-62079123D01*
X125085773Y-61824976D01*
X125083019Y-61822624D01*
X125083015Y-61822620D01*
X124863073Y-61634772D01*
X124821959Y-61599657D01*
X124818956Y-61597639D01*
X124818948Y-61597633D01*
X124580404Y-61437339D01*
X124533996Y-61406154D01*
X124530787Y-61404498D01*
X124530779Y-61404493D01*
X124228921Y-61248693D01*
X124225701Y-61247031D01*
X123901159Y-61124397D01*
X123897647Y-61123515D01*
X123897638Y-61123512D01*
X123728012Y-61080905D01*
X123564674Y-61039877D01*
X123380771Y-61015666D01*
X123224307Y-60995067D01*
X123224299Y-60995066D01*
X123220703Y-60994593D01*
X123075739Y-60992316D01*
X122877450Y-60989200D01*
X122877446Y-60989200D01*
X122873808Y-60989143D01*
X122870194Y-60989504D01*
X122870188Y-60989504D01*
X122627532Y-61013725D01*
X122528585Y-61023601D01*
X122189610Y-61097510D01*
X122186183Y-61098683D01*
X122186177Y-61098685D01*
X121864808Y-61208714D01*
X121864803Y-61208716D01*
X121861377Y-61209889D01*
X121858109Y-61211448D01*
X121858101Y-61211451D01*
X121709598Y-61282284D01*
X121548235Y-61359250D01*
X121254336Y-61543612D01*
X120983575Y-61760533D01*
X120739540Y-62007137D01*
X120525467Y-62280155D01*
X120344192Y-62575968D01*
X120342667Y-62579253D01*
X120342665Y-62579257D01*
X120312937Y-62643301D01*
X120198119Y-62890657D01*
X120169938Y-62975869D01*
X120090322Y-63216603D01*
X120090319Y-63216613D01*
X120089183Y-63220049D01*
X120088447Y-63223604D01*
X120088446Y-63223607D01*
X120064892Y-63337345D01*
X120018828Y-63559779D01*
X120003747Y-63728760D01*
X119989913Y-63883769D01*
X119987987Y-63905344D01*
X119514155Y-63905344D01*
X119514410Y-63883769D01*
X119514553Y-63879075D01*
X119518564Y-63797432D01*
X119519019Y-63791265D01*
X119545184Y-63525614D01*
X119545941Y-63519477D01*
X119555182Y-63457175D01*
X119556235Y-63451102D01*
X119608319Y-63189260D01*
X119609673Y-63183229D01*
X119624986Y-63122096D01*
X119626623Y-63116184D01*
X119704114Y-62860731D01*
X119706053Y-62854859D01*
X119727274Y-62795550D01*
X119729500Y-62789779D01*
X119772456Y-62686077D01*
X119831650Y-62543170D01*
X119834156Y-62537518D01*
X119861100Y-62480548D01*
X119863869Y-62475046D01*
X119989696Y-62239640D01*
X119992744Y-62234259D01*
X120006239Y-62211744D01*
X120025153Y-62180188D01*
X120028451Y-62174981D01*
X120176750Y-61953037D01*
X120180294Y-61948004D01*
X120217855Y-61897359D01*
X120221631Y-61892521D01*
X120227749Y-61885067D01*
X120390973Y-61686176D01*
X120394977Y-61681533D01*
X120437359Y-61634772D01*
X120441603Y-61630316D01*
X120630315Y-61441604D01*
X120634794Y-61437339D01*
X120681506Y-61395002D01*
X120686189Y-61390963D01*
X120722477Y-61361182D01*
X120892525Y-61221628D01*
X120897370Y-61217847D01*
X120947985Y-61180308D01*
X120953038Y-61176749D01*
X121174976Y-61028454D01*
X121180195Y-61025149D01*
X121183379Y-61023241D01*
X121234267Y-60992740D01*
X121239642Y-60989695D01*
X121240000Y-60989504D01*
X121475049Y-60863868D01*
X121480543Y-60861102D01*
X121537518Y-60834155D01*
X121543165Y-60831652D01*
X121789776Y-60729502D01*
X121795545Y-60727277D01*
X121854855Y-60706055D01*
X121860719Y-60704118D01*
X122116182Y-60626624D01*
X122122140Y-60624975D01*
X122183216Y-60609677D01*
X122189248Y-60608322D01*
X122348034Y-60576737D01*
X122451096Y-60556236D01*
X122457159Y-60555185D01*
X122519487Y-60545939D01*
X122525625Y-60545182D01*
X122529991Y-60544752D01*
X122791298Y-60519016D01*
X122797406Y-60518565D01*
X122879105Y-60514552D01*
X122883771Y-60514409D01*
X122998708Y-60513051D01*
X123036494Y-60512605D01*
X123036495Y-60512605D01*
X123040973Y-60512552D01*
X123060677Y-60509492D01*
X123080013Y-60508000D01*
X163918757Y-60508000D01*
X163939274Y-60509682D01*
G37*
%TD.AperFunction*%
%TD*%
M02*
